<svg xmlns="http://www.w3.org/2000/svg" viewBox="0 0 64 64">
  <rect width="64" height="64" rx="14" fill="#111111" />
  <path
    d="M32 39.2c-3.8-5.5-9-8.5-16.2-9.2 3.2-2.4 6.7-3.6 10.9-3.7-2.2-3.7-5.1-6.5-8.9-8.6 6.1.5 11 2.6 14.2 7.5 3.2-4.9 8.1-7 14.2-7.5-3.8 2.1-6.7 4.9-8.9 8.6 4.2.1 7.7 1.3 10.9 3.7-7.2.7-12.4 3.7-16.2 9.2Z"
    fill="#ffffff"
  />
  <path
    d="M32 39.2c-4-2.7-10.1-4.2-18.3-4.3 1.6-.9 3.2-1.6 4.9-2 5.5-.1 10.1 1.1 13.4 4.2 3.3-3.1 7.9-4.3 13.4-4.2 1.7.4 3.3 1.1 4.9 2-8.2.1-14.3 1.6-18.3 4.3Z"
    fill="#ffffff"
  />
  <path
    d="M32 39.2c-4.8-1.4-11.5-2-20.1-1.9 2.1-1.4 4.4-2.3 7-2.8 6.1.1 10.5 1.2 13.1 3.2 2.6-2 7-3.1 13.1-3.2 2.6.5 4.9 1.4 7 2.8-8.6-.1-15.3.5-20.1 1.9Z"
    fill="#ffffff"
  />
</svg>
